<mxfile host="app.diagrams.net" modified="2020-12-29T06:34:10.680Z" agent="5.0 (Windows NT 10.0; Win64; x64) AppleWebKit/537.36 (KHTML, like Gecko) Chrome/87.0.4280.88 Safari/537.36 Edg/87.0.664.60" etag="dMOwjGzzq2P4AFmT-RLW" version="14.1.2" type="github">
  <diagram name="Page-1" id="2a216829-ef6e-dabb-86c1-c78162f3ba2b">
    <mxGraphModel dx="1662" dy="762" grid="1" gridSize="10" guides="1" tooltips="1" connect="1" arrows="1" fold="1" page="1" pageScale="1" pageWidth="850" pageHeight="1100" background="#ffffff" math="0" shadow="0">
      <root>
        <mxCell id="0" />
        <mxCell id="1" parent="0" />
        <mxCell id="3F3cI6WpM6ZBSe5bBxyq-3" style="edgeStyle=orthogonalEdgeStyle;rounded=0;orthogonalLoop=1;jettySize=auto;html=1;entryX=0.5;entryY=0;entryDx=0;entryDy=0;" edge="1" parent="1" source="3F3cI6WpM6ZBSe5bBxyq-1" target="3F3cI6WpM6ZBSe5bBxyq-2">
          <mxGeometry relative="1" as="geometry" />
        </mxCell>
        <mxCell id="3F3cI6WpM6ZBSe5bBxyq-1" value="고객민원센터접속" style="rounded=0;whiteSpace=wrap;html=1;" vertex="1" parent="1">
          <mxGeometry x="40" y="140" width="120" height="60" as="geometry" />
        </mxCell>
        <mxCell id="3F3cI6WpM6ZBSe5bBxyq-5" style="edgeStyle=orthogonalEdgeStyle;rounded=0;orthogonalLoop=1;jettySize=auto;html=1;entryX=0.5;entryY=0;entryDx=0;entryDy=0;" edge="1" parent="1" source="3F3cI6WpM6ZBSe5bBxyq-2" target="3F3cI6WpM6ZBSe5bBxyq-4">
          <mxGeometry relative="1" as="geometry" />
        </mxCell>
        <mxCell id="3F3cI6WpM6ZBSe5bBxyq-2" value="로그인" style="rounded=0;whiteSpace=wrap;html=1;" vertex="1" parent="1">
          <mxGeometry x="40" y="250" width="120" height="60" as="geometry" />
        </mxCell>
        <mxCell id="3F3cI6WpM6ZBSe5bBxyq-10" style="edgeStyle=orthogonalEdgeStyle;rounded=0;orthogonalLoop=1;jettySize=auto;html=1;entryX=0.5;entryY=0;entryDx=0;entryDy=0;" edge="1" parent="1" source="3F3cI6WpM6ZBSe5bBxyq-4" target="3F3cI6WpM6ZBSe5bBxyq-9">
          <mxGeometry relative="1" as="geometry" />
        </mxCell>
        <mxCell id="3F3cI6WpM6ZBSe5bBxyq-81" style="edgeStyle=orthogonalEdgeStyle;rounded=0;orthogonalLoop=1;jettySize=auto;html=1;entryX=0;entryY=0.5;entryDx=0;entryDy=0;" edge="1" parent="1" source="3F3cI6WpM6ZBSe5bBxyq-4" target="3F3cI6WpM6ZBSe5bBxyq-80">
          <mxGeometry relative="1" as="geometry" />
        </mxCell>
        <mxCell id="3F3cI6WpM6ZBSe5bBxyq-4" value="본인인증" style="rhombus;whiteSpace=wrap;html=1;" vertex="1" parent="1">
          <mxGeometry x="60" y="360" width="80" height="80" as="geometry" />
        </mxCell>
        <mxCell id="3F3cI6WpM6ZBSe5bBxyq-12" style="edgeStyle=orthogonalEdgeStyle;rounded=0;orthogonalLoop=1;jettySize=auto;html=1;entryX=0.5;entryY=0;entryDx=0;entryDy=0;" edge="1" parent="1" source="3F3cI6WpM6ZBSe5bBxyq-9">
          <mxGeometry relative="1" as="geometry">
            <mxPoint x="100" y="600" as="targetPoint" />
          </mxGeometry>
        </mxCell>
        <mxCell id="3F3cI6WpM6ZBSe5bBxyq-9" value="휴양시설,일자신청" style="rounded=0;whiteSpace=wrap;html=1;" vertex="1" parent="1">
          <mxGeometry x="40" y="490" width="120" height="60" as="geometry" />
        </mxCell>
        <mxCell id="3F3cI6WpM6ZBSe5bBxyq-26" style="edgeStyle=orthogonalEdgeStyle;rounded=0;orthogonalLoop=1;jettySize=auto;html=1;" edge="1" parent="1" source="3F3cI6WpM6ZBSe5bBxyq-11" target="3F3cI6WpM6ZBSe5bBxyq-25">
          <mxGeometry relative="1" as="geometry" />
        </mxCell>
        <mxCell id="3F3cI6WpM6ZBSe5bBxyq-34" style="edgeStyle=orthogonalEdgeStyle;rounded=0;orthogonalLoop=1;jettySize=auto;html=1;entryX=1;entryY=0.5;entryDx=0;entryDy=0;" edge="1" parent="1" source="3F3cI6WpM6ZBSe5bBxyq-11" target="3F3cI6WpM6ZBSe5bBxyq-9">
          <mxGeometry relative="1" as="geometry">
            <mxPoint x="180" y="520" as="targetPoint" />
            <Array as="points">
              <mxPoint x="100" y="570" />
              <mxPoint x="210" y="570" />
              <mxPoint x="210" y="520" />
            </Array>
          </mxGeometry>
        </mxCell>
        <mxCell id="3F3cI6WpM6ZBSe5bBxyq-63" value="&lt;span style=&quot;font-size: 12px ; background-color: rgb(248 , 249 , 250)&quot;&gt;이용일수부족&lt;/span&gt;&lt;br style=&quot;font-size: 12px ; background-color: rgb(248 , 249 , 250)&quot;&gt;&lt;span style=&quot;font-size: 12px ; background-color: rgb(248 , 249 , 250)&quot;&gt;예약시간오류&lt;/span&gt;&lt;br style=&quot;font-size: 12px ; background-color: rgb(248 , 249 , 250)&quot;&gt;&lt;span style=&quot;font-size: 12px ; background-color: rgb(248 , 249 , 250)&quot;&gt;잔여호실부족&lt;/span&gt;" style="edgeLabel;html=1;align=center;verticalAlign=middle;resizable=0;points=[];" vertex="1" connectable="0" parent="3F3cI6WpM6ZBSe5bBxyq-34">
          <mxGeometry x="-0.2326" y="1" relative="1" as="geometry">
            <mxPoint x="38" y="-9" as="offset" />
          </mxGeometry>
        </mxCell>
        <mxCell id="3F3cI6WpM6ZBSe5bBxyq-37" style="edgeStyle=orthogonalEdgeStyle;rounded=0;orthogonalLoop=1;jettySize=auto;html=1;entryX=0;entryY=0.5;entryDx=0;entryDy=0;" edge="1" parent="1" source="3F3cI6WpM6ZBSe5bBxyq-11" target="3F3cI6WpM6ZBSe5bBxyq-38">
          <mxGeometry relative="1" as="geometry">
            <mxPoint x="200" y="640" as="targetPoint" />
          </mxGeometry>
        </mxCell>
        <mxCell id="3F3cI6WpM6ZBSe5bBxyq-11" value="개인정보&lt;br&gt;동의" style="rhombus;whiteSpace=wrap;html=1;" vertex="1" parent="1">
          <mxGeometry x="60" y="600" width="80" height="80" as="geometry" />
        </mxCell>
        <mxCell id="3F3cI6WpM6ZBSe5bBxyq-25" value="예약완료" style="rounded=0;whiteSpace=wrap;html=1;" vertex="1" parent="1">
          <mxGeometry x="40" y="780" width="120" height="60" as="geometry" />
        </mxCell>
        <mxCell id="3F3cI6WpM6ZBSe5bBxyq-27" value="후불" style="text;html=1;align=center;verticalAlign=middle;resizable=0;points=[];autosize=1;" vertex="1" parent="1">
          <mxGeometry x="60" y="690" width="40" height="20" as="geometry" />
        </mxCell>
        <mxCell id="3F3cI6WpM6ZBSe5bBxyq-40" style="edgeStyle=orthogonalEdgeStyle;rounded=0;orthogonalLoop=1;jettySize=auto;html=1;entryX=0;entryY=0.5;entryDx=0;entryDy=0;" edge="1" parent="1" source="3F3cI6WpM6ZBSe5bBxyq-38" target="3F3cI6WpM6ZBSe5bBxyq-66">
          <mxGeometry relative="1" as="geometry">
            <mxPoint x="410" y="640" as="targetPoint" />
            <Array as="points" />
          </mxGeometry>
        </mxCell>
        <mxCell id="3F3cI6WpM6ZBSe5bBxyq-70" style="edgeStyle=orthogonalEdgeStyle;rounded=0;orthogonalLoop=1;jettySize=auto;html=1;" edge="1" parent="1" source="3F3cI6WpM6ZBSe5bBxyq-38" target="3F3cI6WpM6ZBSe5bBxyq-69">
          <mxGeometry relative="1" as="geometry" />
        </mxCell>
        <mxCell id="3F3cI6WpM6ZBSe5bBxyq-38" value="결제방법선택&lt;br&gt;(계좌이체,카드)" style="rhombus;whiteSpace=wrap;html=1;" vertex="1" parent="1">
          <mxGeometry x="210" y="580" width="130" height="120" as="geometry" />
        </mxCell>
        <mxCell id="3F3cI6WpM6ZBSe5bBxyq-68" value="성공" style="edgeStyle=orthogonalEdgeStyle;rounded=0;orthogonalLoop=1;jettySize=auto;html=1;entryX=1;entryY=0.75;entryDx=0;entryDy=0;" edge="1" parent="1" source="3F3cI6WpM6ZBSe5bBxyq-65" target="3F3cI6WpM6ZBSe5bBxyq-25">
          <mxGeometry relative="1" as="geometry">
            <Array as="points">
              <mxPoint x="670" y="825" />
            </Array>
          </mxGeometry>
        </mxCell>
        <mxCell id="3F3cI6WpM6ZBSe5bBxyq-117" style="edgeStyle=orthogonalEdgeStyle;rounded=0;orthogonalLoop=1;jettySize=auto;html=1;entryX=1;entryY=0.25;entryDx=0;entryDy=0;" edge="1" parent="1" source="3F3cI6WpM6ZBSe5bBxyq-65" target="3F3cI6WpM6ZBSe5bBxyq-9">
          <mxGeometry relative="1" as="geometry">
            <Array as="points">
              <mxPoint x="670" y="505" />
            </Array>
          </mxGeometry>
        </mxCell>
        <mxCell id="3F3cI6WpM6ZBSe5bBxyq-118" value="&lt;div style=&quot;text-align: left&quot;&gt;계좌번호오류&lt;/div&gt;&lt;div style=&quot;text-align: left&quot;&gt;잔액부족&lt;/div&gt;&lt;div style=&quot;text-align: left&quot;&gt;...&lt;/div&gt;" style="edgeLabel;html=1;align=center;verticalAlign=middle;resizable=0;points=[];" vertex="1" connectable="0" parent="3F3cI6WpM6ZBSe5bBxyq-117">
          <mxGeometry x="0.0179" y="3" relative="1" as="geometry">
            <mxPoint as="offset" />
          </mxGeometry>
        </mxCell>
        <mxCell id="3F3cI6WpM6ZBSe5bBxyq-65" value="계좌이체(뱅크페이)" style="whiteSpace=wrap;html=1;" vertex="1" parent="1">
          <mxGeometry x="610" y="610" width="120" height="60" as="geometry" />
        </mxCell>
        <mxCell id="3F3cI6WpM6ZBSe5bBxyq-67" style="edgeStyle=orthogonalEdgeStyle;rounded=0;orthogonalLoop=1;jettySize=auto;html=1;entryX=0;entryY=0.5;entryDx=0;entryDy=0;" edge="1" parent="1" source="3F3cI6WpM6ZBSe5bBxyq-66" target="3F3cI6WpM6ZBSe5bBxyq-65">
          <mxGeometry relative="1" as="geometry" />
        </mxCell>
        <mxCell id="3F3cI6WpM6ZBSe5bBxyq-66" value="증빙선택&lt;br&gt;(현금영수증,세금계산서)" style="rhombus;whiteSpace=wrap;html=1;" vertex="1" parent="1">
          <mxGeometry x="400" y="570" width="155" height="140" as="geometry" />
        </mxCell>
        <mxCell id="3F3cI6WpM6ZBSe5bBxyq-71" value="성공" style="edgeStyle=orthogonalEdgeStyle;rounded=0;orthogonalLoop=1;jettySize=auto;html=1;" edge="1" parent="1" source="3F3cI6WpM6ZBSe5bBxyq-69" target="3F3cI6WpM6ZBSe5bBxyq-25">
          <mxGeometry relative="1" as="geometry" />
        </mxCell>
        <mxCell id="3F3cI6WpM6ZBSe5bBxyq-115" style="edgeStyle=orthogonalEdgeStyle;rounded=0;orthogonalLoop=1;jettySize=auto;html=1;exitX=0.25;exitY=0;exitDx=0;exitDy=0;" edge="1" parent="1" source="3F3cI6WpM6ZBSe5bBxyq-69" target="3F3cI6WpM6ZBSe5bBxyq-9">
          <mxGeometry relative="1" as="geometry">
            <Array as="points">
              <mxPoint x="245" y="750" />
              <mxPoint x="150" y="750" />
            </Array>
          </mxGeometry>
        </mxCell>
        <mxCell id="3F3cI6WpM6ZBSe5bBxyq-116" value="&lt;div style=&quot;text-align: left&quot;&gt;카드번호오류&lt;/div&gt;&lt;div style=&quot;text-align: left&quot;&gt;한도초과&amp;nbsp;&lt;/div&gt;&lt;div style=&quot;text-align: left&quot;&gt;...&lt;/div&gt;" style="edgeLabel;html=1;align=center;verticalAlign=middle;resizable=0;points=[];" vertex="1" connectable="0" parent="3F3cI6WpM6ZBSe5bBxyq-115">
          <mxGeometry x="0.1138" y="-5" relative="1" as="geometry">
            <mxPoint x="5" y="-4" as="offset" />
          </mxGeometry>
        </mxCell>
        <mxCell id="3F3cI6WpM6ZBSe5bBxyq-69" value="카드결제(이지페이)" style="rounded=0;whiteSpace=wrap;html=1;" vertex="1" parent="1">
          <mxGeometry x="215" y="720" width="120" height="60" as="geometry" />
        </mxCell>
        <mxCell id="3F3cI6WpM6ZBSe5bBxyq-73" value="&lt;font style=&quot;font-size: 24px&quot;&gt;휴양시설 예약 워크플로우&lt;/font&gt;" style="text;html=1;align=center;verticalAlign=middle;resizable=0;points=[];autosize=1;" vertex="1" parent="1">
          <mxGeometry x="280" y="90" width="290" height="20" as="geometry" />
        </mxCell>
        <mxCell id="3F3cI6WpM6ZBSe5bBxyq-79" style="edgeStyle=orthogonalEdgeStyle;rounded=0;orthogonalLoop=1;jettySize=auto;html=1;" edge="1" parent="1" source="3F3cI6WpM6ZBSe5bBxyq-78" target="3F3cI6WpM6ZBSe5bBxyq-1">
          <mxGeometry relative="1" as="geometry" />
        </mxCell>
        <mxCell id="3F3cI6WpM6ZBSe5bBxyq-78" value="조합원" style="shape=umlActor;verticalLabelPosition=bottom;verticalAlign=top;html=1;outlineConnect=0;" vertex="1" parent="1">
          <mxGeometry x="200" y="140" width="30" height="60" as="geometry" />
        </mxCell>
        <mxCell id="3F3cI6WpM6ZBSe5bBxyq-91" style="edgeStyle=orthogonalEdgeStyle;rounded=0;orthogonalLoop=1;jettySize=auto;html=1;entryX=0.5;entryY=0;entryDx=0;entryDy=0;" edge="1" parent="1" source="3F3cI6WpM6ZBSe5bBxyq-80" target="3F3cI6WpM6ZBSe5bBxyq-38">
          <mxGeometry relative="1" as="geometry">
            <Array as="points">
              <mxPoint x="275" y="450" />
              <mxPoint x="275" y="450" />
            </Array>
          </mxGeometry>
        </mxCell>
        <mxCell id="3F3cI6WpM6ZBSe5bBxyq-80" value="예약확인페이지&lt;br&gt;(관리자가 월별예약관리에서 미리 방을 잡아둔 경우 )" style="whiteSpace=wrap;html=1;align=left;" vertex="1" parent="1">
          <mxGeometry x="190" y="370" width="290" height="60" as="geometry" />
        </mxCell>
        <mxCell id="3F3cI6WpM6ZBSe5bBxyq-100" style="edgeStyle=orthogonalEdgeStyle;rounded=0;orthogonalLoop=1;jettySize=auto;html=1;entryX=1;entryY=0.5;entryDx=0;entryDy=0;" edge="1" parent="1" source="3F3cI6WpM6ZBSe5bBxyq-83" target="3F3cI6WpM6ZBSe5bBxyq-90">
          <mxGeometry relative="1" as="geometry" />
        </mxCell>
        <mxCell id="3F3cI6WpM6ZBSe5bBxyq-83" value="관리자" style="shape=umlActor;verticalLabelPosition=bottom;verticalAlign=top;html=1;outlineConnect=0;" vertex="1" parent="1">
          <mxGeometry x="870" y="210" width="30" height="60" as="geometry" />
        </mxCell>
        <mxCell id="3F3cI6WpM6ZBSe5bBxyq-94" style="edgeStyle=orthogonalEdgeStyle;rounded=0;orthogonalLoop=1;jettySize=auto;html=1;entryX=0.5;entryY=0;entryDx=0;entryDy=0;" edge="1" parent="1" source="3F3cI6WpM6ZBSe5bBxyq-90" target="3F3cI6WpM6ZBSe5bBxyq-93">
          <mxGeometry relative="1" as="geometry" />
        </mxCell>
        <mxCell id="3F3cI6WpM6ZBSe5bBxyq-90" value="월별예약관리" style="rounded=0;whiteSpace=wrap;html=1;" vertex="1" parent="1">
          <mxGeometry x="710" y="210" width="120" height="60" as="geometry" />
        </mxCell>
        <mxCell id="3F3cI6WpM6ZBSe5bBxyq-112" style="edgeStyle=orthogonalEdgeStyle;rounded=0;orthogonalLoop=1;jettySize=auto;html=1;" edge="1" parent="1" source="3F3cI6WpM6ZBSe5bBxyq-93" target="3F3cI6WpM6ZBSe5bBxyq-80">
          <mxGeometry relative="1" as="geometry" />
        </mxCell>
        <mxCell id="3F3cI6WpM6ZBSe5bBxyq-113" value="&lt;div style=&quot;text-align: left&quot;&gt;현금&lt;/div&gt;&lt;div style=&quot;text-align: left&quot;&gt;입금대기상태로 예약&lt;/div&gt;" style="edgeStyle=orthogonalEdgeStyle;rounded=0;orthogonalLoop=1;jettySize=auto;html=1;" edge="1" parent="1" source="3F3cI6WpM6ZBSe5bBxyq-93">
          <mxGeometry relative="1" as="geometry">
            <mxPoint x="620" y="360" as="targetPoint" />
          </mxGeometry>
        </mxCell>
        <mxCell id="3F3cI6WpM6ZBSe5bBxyq-93" value="유효성검사" style="rhombus;whiteSpace=wrap;html=1;" vertex="1" parent="1">
          <mxGeometry x="415" y="240" width="80" height="80" as="geometry" />
        </mxCell>
        <mxCell id="3F3cI6WpM6ZBSe5bBxyq-101" value="계좌이체, 카드" style="text;html=1;align=center;verticalAlign=middle;resizable=0;points=[];autosize=1;" vertex="1" parent="1">
          <mxGeometry x="325" y="300" width="90" height="20" as="geometry" />
        </mxCell>
        <mxCell id="3F3cI6WpM6ZBSe5bBxyq-97" value="예약대기상태로 예약" style="text;html=1;align=center;verticalAlign=middle;resizable=0;points=[];autosize=1;" vertex="1" parent="1">
          <mxGeometry x="320" y="320" width="130" height="20" as="geometry" />
        </mxCell>
        <mxCell id="3F3cI6WpM6ZBSe5bBxyq-120" style="edgeStyle=orthogonalEdgeStyle;rounded=0;orthogonalLoop=1;jettySize=auto;html=1;" edge="1" parent="1" source="3F3cI6WpM6ZBSe5bBxyq-114" target="3F3cI6WpM6ZBSe5bBxyq-25">
          <mxGeometry relative="1" as="geometry">
            <Array as="points">
              <mxPoint x="750" y="400" />
              <mxPoint x="750" y="930" />
              <mxPoint x="100" y="930" />
            </Array>
          </mxGeometry>
        </mxCell>
        <mxCell id="3F3cI6WpM6ZBSe5bBxyq-114" value="휴양시설신청관리&lt;br&gt;입금확인" style="whiteSpace=wrap;html=1;" vertex="1" parent="1">
          <mxGeometry x="560" y="370" width="120" height="60" as="geometry" />
        </mxCell>
      </root>
    </mxGraphModel>
  </diagram>
</mxfile>
